<svg width="43" height="37" viewBox="0 0 43 37" fill="none" xmlns="http://www.w3.org/2000/svg">
<g clip-path="url(#clip0_5_73)">
<path d="M21.6524 0.0999756C13.6107 0.0999756 7.06851 5.82945 7.06851 12.8712C7.06851 19.6495 20.3007 35.486 20.8641 36.1566L21.3899 36.7833C21.4514 36.8569 21.5493 36.9 21.6524 36.9C21.757 36.9 21.8543 36.8569 21.9164 36.7833L22.4419 36.1566C23.0056 35.486 36.2375 19.6495 36.2375 12.8712C36.2375 5.82945 29.6942 0.0999756 21.6524 0.0999756ZM21.6524 8.29658C24.5337 8.29658 26.8767 10.3483 26.8767 12.8712C26.8767 15.3928 24.5336 17.4458 21.6524 17.4458C18.7727 17.4458 16.428 15.3928 16.428 12.8712C16.428 10.3483 18.7726 8.29658 21.6524 8.29658Z" fill="white"/>
</g>
<defs>
<clipPath id="clip0_5_73">
<rect width="42.0264" height="36.8" fill="white" transform="translate(0.639824 0.0999756)"/>
</clipPath>
</defs>
</svg>
